<svg xmlns="http://www.w3.org/2000/svg" width="20" height="25" viewBox="0 0 20 25" fill="none">
  <path d="M12.541 10.6073C13.2961 10.1789 13.9243 9.55829 14.3618 8.80849C14.7993 8.05869 15.0306 7.20645 15.032 6.33834C15.0197 5.66765 14.8748 5.00603 14.6056 4.39161C14.3365 3.77718 13.9484 3.22209 13.4637 2.75834C12.979 2.29458 12.4074 1.93133 11.7817 1.6895C11.156 1.44768 10.4886 1.33208 9.81805 1.34934C9.14747 1.33208 8.48011 1.44768 7.85441 1.6895C7.22872 1.93133 6.65706 2.29458 6.17239 2.75834C5.68772 3.22209 5.29962 3.77718 5.03045 4.39161C4.76128 5.00603 4.61636 5.66765 4.60405 6.33834C4.60554 7.20645 4.83679 8.05869 5.2743 8.80849C5.71182 9.55829 6.34001 10.1789 7.09505 10.6073C5.23011 11.117 3.5822 12.2209 2.40111 13.7515C1.22003 15.2821 0.57017 17.1561 0.550049 19.0893C0.550049 23.9673 4.95005 23.4683 6.57505 23.5793H13.005C16.075 23.5793 19.03 23.2463 19.03 19.0893C19.0221 17.1612 18.3836 15.2885 17.212 13.7571C16.0404 12.2256 14.4 11.1195 12.541 10.6073ZM5.76305 6.39434C5.77145 5.87234 5.88335 5.35719 6.09226 4.87874C6.30118 4.4003 6.60296 3.96806 6.98013 3.60708C7.35729 3.2461 7.80234 2.96356 8.28948 2.77581C8.77662 2.58806 9.29618 2.49885 9.81805 2.51334C10.3415 2.4911 10.8641 2.575 11.3542 2.75999C11.8444 2.94497 12.2921 3.22723 12.6704 3.58976C13.0486 3.95229 13.3496 4.3876 13.5553 4.8695C13.7609 5.35139 13.8669 5.8699 13.8669 6.39384C13.8669 6.91777 13.7609 7.43629 13.5553 7.91819C13.3496 8.40008 13.0486 8.83538 12.6704 9.19791C12.2921 9.56044 11.8444 9.8427 11.3542 10.0277C10.8641 10.2127 10.3415 10.2966 9.81805 10.2743C8.77263 10.2743 7.76756 9.87084 7.01231 9.148C6.25706 8.42517 5.80991 7.43875 5.76405 6.39434H5.76305ZM13.063 22.4713H6.63205C4.54705 22.4163 1.76605 22.6373 1.76605 19.0893C1.81955 16.9871 2.70223 14.9913 4.22155 13.5374C5.74086 12.0835 7.7735 11.2894 9.87605 11.3283C11.9786 11.2894 14.0112 12.0835 15.5306 13.5374C17.0499 14.9913 17.9326 16.9871 17.986 19.0893C17.928 21.9683 16.422 22.4683 13.062 22.4683L13.063 22.4713Z" fill="#A6A6A6" stroke="#A6A6A6"/>
</svg>