<svg width="1150" height="604" viewBox="0 0 1150 604" fill="none" xmlns="http://www.w3.org/2000/svg">
<g filter="url(#filter0_d_978_1320)">
<path d="M10 40C10 20.67 25.67 5 45 5H1105C1124.33 5 1140 20.67 1140 40V554C1140 573.33 1124.33 589 1105 589H45C25.67 589 10 573.33 10 554V40Z" fill="#F8F8F8"/>
</g>
<path d="M488.488 386L477.033 368.275C475.881 368.256 474.27 368.188 472.199 368.07V386H464.289V343.08C464.719 343.08 466.369 343.012 469.24 342.875C472.111 342.719 474.426 342.641 476.184 342.641C487.082 342.641 492.531 346.859 492.531 355.297C492.531 357.836 491.779 360.15 490.275 362.24C488.771 364.33 486.877 365.805 484.592 366.664L497.277 386H488.488ZM472.199 349.701V361.625C473.605 361.742 474.68 361.801 475.422 361.801C478.605 361.801 480.93 361.352 482.395 360.453C483.879 359.555 484.621 357.807 484.621 355.209C484.621 353.1 483.83 351.625 482.248 350.785C480.666 349.945 478.176 349.525 474.777 349.525C473.957 349.525 473.098 349.584 472.199 349.701ZM517.99 382.865C517.326 383.959 516.164 384.857 514.504 385.561C512.863 386.244 511.145 386.586 509.348 386.586C505.969 386.586 503.312 385.746 501.379 384.066C499.445 382.367 498.479 379.965 498.479 376.859C498.479 373.227 499.836 370.385 502.551 368.334C505.285 366.283 509.162 365.258 514.182 365.258C515.041 365.258 516.057 365.404 517.229 365.697C517.229 362.006 514.895 360.16 510.227 360.16C507.473 360.16 505.168 360.619 503.312 361.537L501.73 355.854C504.25 354.643 507.248 354.037 510.725 354.037C515.51 354.037 519.016 355.131 521.242 357.318C523.469 359.486 524.582 363.607 524.582 369.682V376.391C524.582 380.57 525.422 383.197 527.102 384.271C526.496 385.326 525.822 385.971 525.08 386.205C524.338 386.459 523.488 386.586 522.531 386.586C521.477 386.586 520.529 386.195 519.689 385.414C518.85 384.633 518.283 383.783 517.99 382.865ZM517.287 371.234C516.037 370.98 515.1 370.854 514.475 370.854C508.693 370.854 505.803 372.748 505.803 376.537C505.803 379.35 507.434 380.756 510.695 380.756C515.09 380.756 517.287 378.559 517.287 374.164V371.234ZM552.678 386L544.621 375.775L537.385 386H528.713L540.754 369.945L529.68 354.623H538.088L544.709 364.203L552.092 354.623H560.441L548.4 369.945L561.555 386H552.678ZM602.014 386V366.342C602.014 362.221 600.168 360.16 596.477 360.16C595.383 360.16 594.328 360.482 593.312 361.127C592.297 361.771 591.584 362.514 591.174 363.354V386H583.85V365.199C583.85 363.656 583.371 362.436 582.414 361.537C581.457 360.619 580.109 360.16 578.371 360.16C577.453 360.16 576.447 360.502 575.354 361.186C574.279 361.869 573.498 362.621 573.01 363.441V386H565.686V354.623H570.725L572.219 357.377C574.25 355.15 576.877 354.037 580.1 354.037C584.26 354.037 587.395 355.17 589.504 357.436C590.422 356.4 591.701 355.58 593.342 354.975C594.982 354.35 596.623 354.037 598.264 354.037C601.76 354.037 604.475 355.043 606.408 357.055C608.361 359.047 609.338 361.791 609.338 365.287V386H602.014ZM634.709 382.865C634.045 383.959 632.883 384.857 631.223 385.561C629.582 386.244 627.863 386.586 626.066 386.586C622.688 386.586 620.031 385.746 618.098 384.066C616.164 382.367 615.197 379.965 615.197 376.859C615.197 373.227 616.555 370.385 619.27 368.334C622.004 366.283 625.881 365.258 630.9 365.258C631.76 365.258 632.775 365.404 633.947 365.697C633.947 362.006 631.613 360.16 626.945 360.16C624.191 360.16 621.887 360.619 620.031 361.537L618.449 355.854C620.969 354.643 623.967 354.037 627.443 354.037C632.229 354.037 635.734 355.131 637.961 357.318C640.188 359.486 641.301 363.607 641.301 369.682V376.391C641.301 380.57 642.141 383.197 643.82 384.271C643.215 385.326 642.541 385.971 641.799 386.205C641.057 386.459 640.207 386.586 639.25 386.586C638.195 386.586 637.248 386.195 636.408 385.414C635.568 384.633 635.002 383.783 634.709 382.865ZM634.006 371.234C632.756 370.98 631.818 370.854 631.193 370.854C625.412 370.854 622.521 372.748 622.521 376.537C622.521 379.35 624.152 380.756 627.414 380.756C631.809 380.756 634.006 378.559 634.006 374.164V371.234ZM650.354 360.512H646.721V354.623H650.354V348.236L657.678 345.541V354.623H666.291V360.512H657.678V374.252C657.678 376.498 658.029 378.09 658.732 379.027C659.436 379.945 660.666 380.404 662.424 380.404C664.182 380.404 665.822 379.926 667.346 378.969V385.707C665.646 386.293 663.225 386.586 660.08 386.586C656.955 386.586 654.553 385.707 652.873 383.949C651.193 382.172 650.354 379.652 650.354 376.391V360.512ZM681.555 374.809H678.508C676.984 365.043 676.223 358.217 676.223 354.33V342.318H683.84V354.301C683.84 358.207 683.078 365.043 681.555 374.809ZM680.266 376.977C681.594 376.977 682.717 377.445 683.635 378.383C684.572 379.32 685.041 380.453 685.041 381.781C685.041 383.109 684.572 384.242 683.635 385.18C682.717 386.117 681.594 386.586 680.266 386.586C678.938 386.586 677.805 386.117 676.867 385.18C675.93 384.242 675.461 383.109 675.461 381.781C675.461 380.453 675.93 379.32 676.867 378.383C677.805 377.445 678.938 376.977 680.266 376.977Z" fill="black"/>
<defs>
<filter id="filter0_d_978_1320" x="0" y="0" width="1150" height="604" filterUnits="userSpaceOnUse" color-interpolation-filters="sRGB">
<feFlood flood-opacity="0" result="BackgroundImageFix"/>
<feColorMatrix in="SourceAlpha" type="matrix" values="0 0 0 0 0 0 0 0 0 0 0 0 0 0 0 0 0 0 127 0" result="hardAlpha"/>
<feOffset dy="5"/>
<feGaussianBlur stdDeviation="5"/>
<feComposite in2="hardAlpha" operator="out"/>
<feColorMatrix type="matrix" values="0 0 0 0 0 0 0 0 0 0 0 0 0 0 0 0 0 0 0.25 0"/>
<feBlend mode="normal" in2="BackgroundImageFix" result="effect1_dropShadow_978_1320"/>
<feBlend mode="normal" in="SourceGraphic" in2="effect1_dropShadow_978_1320" result="shape"/>
</filter>
</defs>
</svg>
