<svg xmlns="http://www.w3.org/2000/svg" width="99" height="90" viewBox="0 0 99 90" fill="none">
  <g filter="url(#filter0_d_1259_5)">
    <rect x="14" y="14" width="71" height="62" rx="17" fill="#F8F8F8"/>
    <rect x="14.5" y="14.5" width="70" height="61" rx="16.5" stroke="#CBCBCB"/>
  </g>
  <path d="M58.75 33.8043C58.75 37.8102 53.4198 44.949 51.0792 47.8251C50.5177 48.5955 49.4823 48.5955 48.9208 47.8251C46.5802 44.949 41.25 37.8102 41.25 33.8043C41.25 28.9421 45.1656 25 50 25C54.8344 25 58.75 28.9421 58.75 33.8043ZM50 36.1521C51.6115 36.1521 52.9167 34.8388 52.9167 33.2173C52.9167 31.5966 51.6115 30.2826 50 30.2826C48.3885 30.2826 47.0833 31.5966 47.0833 33.2173C47.0833 34.8388 48.3885 36.1521 50 36.1521ZM60.0333 38.1918C60.0698 38.1037 60.1062 38.0157 60.1427 37.9203L68.601 34.516C69.7531 34.0537 71 34.9048 71 36.1521V56.0204C71 56.7394 70.5625 57.3851 69.899 57.6566L59.3333 61.9046V39.7032C59.5885 39.1969 59.8219 38.698 60.0333 38.1918ZM39.9667 38.1918C40.1781 38.698 40.4115 39.1969 40.6667 39.7032V58.1481L31.3997 61.8826C30.2505 62.2788 29 61.4938 29 60.2465V40.3781C29 39.6591 29.4357 38.9475 30.1003 38.742L39.0333 35.1469C39.2083 36.1888 39.5656 37.2233 39.9667 38.1918ZM52.9021 49.2925C53.9156 48.0819 55.5052 46.0056 57 43.7091V62L43 57.972V43.7091C44.4948 46.0056 46.0844 48.0819 47.0979 49.2925C48.5927 51.2368 51.4073 51.2368 52.9021 49.2925Z" fill="#009398"/>
  <defs>
    <filter id="filter0_d_1259_5" x="0" y="0" width="99" height="90" filterUnits="userSpaceOnUse" color-interpolation-filters="sRGB">
      <feFlood flood-opacity="0" result="BackgroundImageFix"/>
      <feColorMatrix in="SourceAlpha" type="matrix" values="0 0 0 0 0 0 0 0 0 0 0 0 0 0 0 0 0 0 127 0" result="hardAlpha"/>
      <feOffset/>
      <feGaussianBlur stdDeviation="7"/>
      <feColorMatrix type="matrix" values="0 0 0 0 0 0 0 0 0 0 0 0 0 0 0 0 0 0 0.25 0"/>
      <feBlend mode="normal" in2="BackgroundImageFix" result="effect1_dropShadow_1259_5"/>
      <feBlend mode="normal" in="SourceGraphic" in2="effect1_dropShadow_1259_5" result="shape"/>
    </filter>
  </defs>
</svg>