<svg xmlns="http://www.w3.org/2000/svg" width="27" height="25" viewBox="0 0 27 25" fill="none">
  <path d="M26.7418 3.13253C26.7418 3.13247 26.7417 3.13246 26.7417 3.13252L22.6946 23.2932C22.3891 24.7159 21.5931 25.0701 20.4618 24.4002L17.6422 22.2055C15.734 20.7201 13.0157 20.8998 11.3197 22.6234C10.7814 23.192 10.1244 22.5995 10.1767 21.8183L10.4053 18.3978C10.4814 17.2596 10.9814 16.1912 11.8066 15.4035L21.9523 5.71934C22.4494 5.25186 21.844 4.99181 21.1802 5.4603L11.106 12.1614C8.54653 13.8638 5.34629 14.2946 2.42779 13.3294L0.968658 12.8468C-0.354193 12.4107 -0.378141 11.4495 1.24453 10.7786L25.0357 1.09617C26.1372 0.660102 27.1008 1.35507 26.7419 3.13253C26.7418 3.13259 26.7418 3.13259 26.7418 3.13253Z" fill="#009398"/>
</svg>