<svg xmlns="http://www.w3.org/2000/svg" width="232" height="232" viewBox="0 0 232 232" fill="none">
  <circle cx="116.73" cy="114.73" r="98.7297" fill="#1DD846" fill-opacity="0.3"/>
  <circle cx="118.035" cy="115.165" r="65.2399" fill="white"/>
  <circle cx="116" cy="116" r="116" fill="#1DD846" fill-opacity="0.1"/>
  <circle cx="117.533" cy="116.511" r="76.652" fill="white"/>
  <circle cx="115.552" cy="115.552" r="76.139" fill="white"/>
  <path d="M114.656 35.9296C98.9079 35.9296 83.5137 40.5994 70.4198 49.3484C57.326 58.0975 47.1206 70.5328 41.0941 85.0819C35.0677 99.631 33.4909 115.64 36.5632 131.086C39.6354 146.531 47.2187 160.718 58.3541 171.854C69.4895 182.989 83.6769 190.572 99.1222 193.645C114.567 196.717 130.577 195.14 145.126 189.114C159.675 183.087 172.11 172.882 180.859 159.788C189.608 146.694 194.278 131.3 194.278 115.552C194.278 94.4349 185.889 74.1826 170.957 59.2505C156.025 44.3184 135.773 35.9296 114.656 35.9296ZM166.659 88.8288L101.269 154.169L62.6523 115.552C61.3325 114.232 60.591 112.442 60.591 110.576C60.591 108.709 61.3325 106.919 62.6523 105.599C63.9721 104.279 65.7622 103.538 67.6287 103.538C69.4952 103.538 71.2853 104.279 72.6051 105.599L101.369 134.363L156.806 78.9755C157.459 78.322 158.235 77.8036 159.089 77.45C159.943 77.0963 160.858 76.9142 161.782 76.9142C162.706 76.9142 163.622 77.0963 164.476 77.45C165.329 77.8036 166.105 78.322 166.759 78.9755C167.412 79.6291 167.931 80.4049 168.284 81.2587C168.638 82.1126 168.82 83.0277 168.82 83.9519C168.82 84.8761 168.638 85.7913 168.284 86.6452C167.931 87.499 167.412 88.2748 166.759 88.9283L166.659 88.8288Z" fill="#1DD846"/>
</svg>